<svg width="53" height="47" viewBox="0 0 53 47" fill="none" xmlns="http://www.w3.org/2000/svg">
<g clip-path="url(#clip0_2_2908)">
<path d="M50.9834 8.72371C50.7201 9.01108 50.3422 9.19525 49.9189 9.19525C49.8291 9.19525 49.7404 9.18519 49.6555 9.16888C49.3397 9.11127 49.0625 8.95009 48.8551 8.72371C48.6241 8.47204 48.4803 8.14355 48.4803 7.77887C48.4803 6.99907 49.1262 6.36361 49.9189 6.36361C50.7124 6.36361 51.3577 6.99907 51.3577 7.77887C51.3577 8.14355 51.2134 8.47204 50.9834 8.72371ZM45.3516 4.22512C45.1398 4.34482 44.8986 4.41872 44.6381 4.41872C43.845 4.41872 43.1998 3.78288 43.1998 3.00225C43.1998 2.22182 43.845 1.58699 44.6381 1.58699C45.4305 1.58699 46.0748 2.22044 46.0779 2.99961V3.00225C46.0779 3.52619 45.782 3.98015 45.3516 4.22512ZM39.3079 13.5516C38.9405 13.5516 38.6075 13.4106 38.3532 13.1867C38.0585 12.9268 37.87 12.5538 37.87 12.136C37.87 11.3553 38.5151 10.7195 39.3079 10.7195C40.101 10.7195 40.7466 11.3553 40.7466 12.136C40.7466 12.5538 40.5567 12.9268 40.2627 13.1867C40.0088 13.4106 39.6763 13.5516 39.3079 13.5516ZM29.2496 44.4862H23.7188L23.536 43.6535L23.4921 43.4506H28.3044L30.3987 34.0921L31.6419 33.5711L29.2496 44.4862ZM13.6611 13.5516C13.293 13.5516 12.961 13.4106 12.7064 13.1867C12.4119 12.9268 12.2228 12.5538 12.2228 12.136C12.2228 11.3553 12.8681 10.7195 13.6611 10.7195C14.4534 10.7195 15.0995 11.3553 15.0995 12.136C15.0995 12.5538 14.9106 12.9268 14.6159 13.1867C14.3617 13.4106 14.0285 13.5516 13.6611 13.5516ZM8.33017 4.41872C8.06972 4.41872 7.82919 4.34482 7.61807 4.22512C7.18661 3.98015 6.89183 3.52619 6.89183 3.00225V2.99961C6.89361 2.22044 7.53758 1.58699 8.33017 1.58699C9.12468 1.58699 9.76895 2.22182 9.76895 3.00225C9.76895 3.78288 9.12468 4.41872 8.33017 4.41872ZM3.31398 9.16888C3.22725 9.18519 3.13952 9.19525 3.04973 9.19525C2.62654 9.19525 2.24839 9.01108 1.98564 8.72371C1.75534 8.47204 1.61102 8.14355 1.61102 7.77887C1.61102 6.99907 2.25602 6.36361 3.04973 6.36361C3.8424 6.36361 4.4887 6.99907 4.4887 7.77887C4.4887 8.14355 4.34484 8.47204 4.11418 8.72371C3.90724 8.95009 3.6296 9.11127 3.31398 9.16888ZM49.9189 4.77753C48.2359 4.77753 46.8682 6.12412 46.8682 7.77887C46.8682 9 47.6121 10.0503 48.6783 10.5192V14.6295L45.8794 16.0123V5.74159C46.9438 5.27344 47.6896 4.22228 47.6896 3.00225C47.6896 2.40296 47.507 1.84405 47.1985 1.37553C46.6547 0.549114 45.7115 0 44.6381 0C42.9561 0 41.5883 1.3465 41.5883 3.00225C41.5883 4.22228 42.3327 5.27344 43.3972 5.74188V21.0819L40.55 22.3249V14.8755C41.6143 14.4063 42.3584 13.356 42.3584 12.136C42.3584 10.4804 40.9895 9.13288 39.3079 9.13288C37.6255 9.13288 36.258 10.4804 36.258 12.136C36.258 13.356 37.0019 14.4063 38.0669 14.8755V22.9458L33.6084 24.6039L32.3129 30.5131L28.5149 31.852L28.5097 31.8794L26.4881 40.9766L22.9519 40.9878L21.3435 33.5723L23.7878 34.6315L23.0044 31.3519L20.7068 30.5265L19.4066 24.5697L14.9016 22.9458V14.8755C15.9676 14.4063 16.7119 13.356 16.7119 12.136C16.7119 10.4804 15.3428 9.13288 13.6611 9.13288C11.9794 9.13288 10.6103 10.4804 10.6103 12.136C10.6103 13.356 11.3553 14.4063 12.4195 14.8755V22.3249L9.57178 21.0819V5.74188C10.6357 5.27344 11.3807 4.22228 11.3807 3.00225C11.3807 1.3465 10.0125 0 8.33017 0C7.25724 0 6.31401 0.549114 5.77015 1.37553C5.46067 1.84405 5.28006 2.40296 5.28006 3.00225C5.28006 4.22228 6.02417 5.27344 7.08928 5.74159V16.0123L4.2906 14.6295V10.5192C5.3559 10.0503 6.10056 9 6.10056 7.77887C6.10056 6.12412 4.73211 4.77753 3.04973 4.77753C1.3677 4.77753 0 6.12412 0 7.77887C0 9 0.744286 10.0503 1.80735 10.5192V16.1364L7.08928 18.7469V22.9458L17.3172 26.6738L17.5872 27.9145L10.4064 25.2648V27.8648L18.2279 30.8567L21.736 46.9718H31.2324L34.8108 30.5363L34.75 30.871L42.5749 28.0241V25.271L35.3774 27.9322L35.6516 26.6738L45.8794 22.9458V18.7469L51.1602 16.1364V10.5192C52.2257 10.0503 52.9684 9 52.9684 7.77887C52.9684 6.12412 51.6006 4.77753 49.9189 4.77753Z" fill="#A080FF"/>
</g>
<defs>
<clipPath id="clip0_2_2908">
<rect width="53" height="47" fill="white"/>
</clipPath>
</defs>
</svg>
