<svg width="180" height="48" viewBox="0 0 180 48" fill="none" xmlns="http://www.w3.org/2000/svg">
<g clip-path="url(#clip0_32_246)">
<path d="M23.2422 28.2514V40.9304H15.9054V28.2514L0 0H8.45121L19.5737 19.7556L30.6966 0H39.1477L23.2422 28.2514Z" fill="white"/>
<path d="M33.5061 40.8209H61.9131V48.302H33.5061V40.8209Z" fill="white"/>
<path d="M152.471 33.3994H167.934C169.231 33.3994 170.413 32.8555 171.272 31.9801C172.13 31.1044 172.664 29.8989 172.664 28.5771C172.664 27.2542 172.13 26.0492 171.272 25.1737C170.413 24.2985 169.231 23.7544 167.934 23.7544H166.424H152.471V33.3994ZM76.1064 0.681163V33.4034H96.1666V40.8845H68.7698V0.681163H76.1064ZM134.36 40.8927L120.501 10.8713L106.642 40.8927H98.643V40.6949L117.191 0.515409H123.811L142.359 40.6949V40.8927H134.36ZM145.134 16.2735V0.557514H166.424C169.546 0.557514 172.386 1.86152 174.447 3.96109L174.461 3.97567C176.52 6.07615 177.799 8.9722 177.799 12.1556C177.799 14.7347 176.964 17.1237 175.558 19.0535C175.872 19.3155 176.173 19.5926 176.459 19.8845C178.644 22.1123 180.001 25.1893 180.001 28.5767C180.001 31.9641 178.644 35.0415 176.459 37.2693C174.274 39.497 171.256 40.8805 167.934 40.8805H145.134V20.0139V16.2735ZM166.424 16.2735C167.54 16.2735 168.549 15.8143 169.273 15.0756V15.0611C170.006 14.3134 170.462 13.2842 170.462 12.156C170.462 11.0209 170.009 9.9904 169.281 9.24319C168.548 8.50026 167.537 8.03863 166.424 8.03863H152.471V16.2735H166.424Z" fill="white"/>
<path fill-rule="evenodd" clip-rule="evenodd" d="M120.305 40.8929H112.07C112.07 36.2555 115.757 32.4962 120.305 32.4962C124.852 32.4962 128.539 36.2555 128.539 40.8929H120.305Z" fill="#A080FF"/>
</g>
<defs>
<clipPath id="clip0_32_246">
<rect width="180" height="48" fill="white"/>
</clipPath>
</defs>
</svg>
